<?xml version="1.0" encoding="UTF-8"?>
<svg xmlns="http://www.w3.org/2000/svg" viewBox="0 0 400 600">
<style>@import url('https://fonts.googleapis.com/css2?family=Archivo:wght@400;500;600;900&amp;family=JetBrains+Mono:wght@400;500;700&amp;display=swap');</style>
<rect width="400" height="600" fill="#ffdf6b"/>
<clipPath id="c9"><rect width="400" height="600"/></clipPath>
<g clip-path="url(#c9)">
<rect y="0" width="400" height="120" fill="#ff9c3f"/>
<rect y="120" width="400" height="70" fill="#ff6f4a"/>
<rect y="190" width="400" height="52" fill="#ffdf6b"/>
<circle cx="200" cy="242" r="96" fill="#ff3f6e"/>
<rect y="242" width="400" height="60" fill="#7a3fd6"/>
<rect y="302" width="400" height="46" fill="#4a2fb0"/>
<rect y="348" width="400" height="252" fill="#141a4a"/>
<path d="M0 348 Q 100 300 200 348 Q 300 396 400 348 L400 380 Q 300 428 200 380 Q 100 332 0 380 Z" fill="#2b3480"/>
<path d="M0 404 Q 100 356 200 404 Q 300 452 400 404 L400 436 Q 300 484 200 436 Q 100 388 0 436 Z" fill="#1d2566"/>
<g fill="#ffdf6b"><circle cx="60" cy="60" r="5"/><circle cx="336" cy="46" r="4"/></g>
</g>
<rect x="12" y="12" width="376" height="576" fill="none" stroke="#141a4a" stroke-width="3"/>
<text x="34" y="52" font-family="JetBrains Mono" font-size="11" letter-spacing="3" fill="#141a4a">FESTIVAL · OPEN AIR</text>
<text x="200" y="504" text-anchor="middle" font-family="Archivo" font-weight="900" font-size="42" letter-spacing="-1.5" fill="#ffdf6b">ISLE OF</text>
<text x="200" y="544" text-anchor="middle" font-family="Archivo" font-size="40" letter-spacing="4" fill="#ff9c3f">SUMMER</text>
<text x="200" y="572" text-anchor="middle" font-family="JetBrains Mono" font-size="10.5" letter-spacing="2.4" fill="#8f96c8">2027 TBA · GALOPPRENNBAHN RIEM</text>
</svg>
