<?xml version="1.0" encoding="UTF-8"?>
<svg xmlns="http://www.w3.org/2000/svg" viewBox="0 0 400 600">
<style>@import url('../fonts/fonts.css');</style>
<rect width="400" height="600" fill="#12100e"/>
<clipPath id="c16"><rect width="400" height="600"/></clipPath>
<g clip-path="url(#c16)">
<rect x="40" y="70" width="320" height="400" fill="#1c1916"/>
<g fill="#e8e0d0">
<rect x="52" y="82" width="16" height="22"/><rect x="52" y="120" width="16" height="22"/><rect x="52" y="158" width="16" height="22"/>
<rect x="52" y="196" width="16" height="22"/><rect x="52" y="234" width="16" height="22"/><rect x="52" y="272" width="16" height="22"/>
<rect x="52" y="310" width="16" height="22"/><rect x="52" y="348" width="16" height="22"/><rect x="52" y="386" width="16" height="22"/><rect x="52" y="424" width="16" height="22"/>
<rect x="332" y="82" width="16" height="22"/><rect x="332" y="120" width="16" height="22"/><rect x="332" y="158" width="16" height="22"/>
<rect x="332" y="196" width="16" height="22"/><rect x="332" y="234" width="16" height="22"/><rect x="332" y="272" width="16" height="22"/>
<rect x="332" y="310" width="16" height="22"/><rect x="332" y="348" width="16" height="22"/><rect x="332" y="386" width="16" height="22"/><rect x="332" y="424" width="16" height="22"/>
</g>
<rect x="86" y="94" width="228" height="118" fill="#d63f5e"/>
<rect x="86" y="222" width="228" height="118" fill="#e8e0d0"/>
<rect x="86" y="350" width="228" height="106" fill="#2f7fb0"/>
<g fill="#12100e"><circle cx="200" cy="153" r="34"/><path d="M186 138 L224 153 L186 168 Z" fill="#d63f5e"/></g>
<g fill="#12100e"><circle cx="200" cy="281" r="34"/><path d="M186 266 L224 281 L186 296 Z" fill="#e8e0d0"/></g>
<g fill="#12100e"><circle cx="200" cy="403" r="34"/><path d="M186 388 L224 403 L186 418 Z" fill="#2f7fb0"/></g>
</g>
<rect x="12" y="12" width="376" height="576" fill="none" stroke="#e8e0d0" stroke-width="2.5"/>
<text x="34" y="52" font-family="JetBrains Mono" font-size="11" letter-spacing="3" fill="#d63f5e">CLUB NIGHT · IMMERSIV</text>
<text x="200" y="518" text-anchor="middle" font-family="Archivo" font-weight="900" font-size="44" letter-spacing="-1" fill="#e8e0d0">ECHONOMIST</text>
<text x="200" y="546" text-anchor="middle" font-family="JetBrains Mono" font-size="10.5" letter-spacing="2.6" fill="#2f7fb0">IM EHEMALIGEN KINO</text>
<text x="200" y="570" text-anchor="middle" font-family="JetBrains Mono" font-size="10.5" letter-spacing="2.2" fill="#7d746a">25.09 · 22:00 · PIMPERNEL</text>
</svg>
