<?xml version="1.0" encoding="UTF-8"?>
<svg xmlns="http://www.w3.org/2000/svg" viewBox="0 0 400 600">
<style>@import url('https://fonts.googleapis.com/css2?family=Archivo:wght@400;500;600;900&amp;family=JetBrains+Mono:wght@400;500;700&amp;display=swap');</style>
<rect width="400" height="600" fill="#f6d64a"/>
<clipPath id="c30"><rect width="400" height="600"/></clipPath>

<g clip-path="url(#c30)">
<g stroke="#1c1a17" stroke-width="4">
<path d="M46 110 H236 A16 16 0 0 1 252 126 V218 A16 16 0 0 1 236 234 H120 L86 268 V234 H46 A16 16 0 0 1 30 218 V126 A16 16 0 0 1 46 110 Z" fill="#f2ece0"/>
<path d="M164 256 H354 A16 16 0 0 1 370 272 V364 A16 16 0 0 1 354 380 H300 L266 414 V380 H164 A16 16 0 0 1 148 364 V272 A16 16 0 0 1 164 256 Z" fill="#e8543f"/>
<path d="M60 400 H210 A16 16 0 0 1 226 416 V478 A16 16 0 0 1 210 494 H60 A16 16 0 0 1 44 478 V416 A16 16 0 0 1 60 400 Z" fill="#2f6f9c"/>
</g>
<g fill="#1c1a17"><rect x="58" y="146" width="150" height="8"/><rect x="58" y="172" width="112" height="8"/><rect x="58" y="198" width="134" height="8"/></g>
<g fill="#f2ece0"><rect x="176" y="292" width="150" height="8"/><rect x="176" y="318" width="118" height="8"/><rect x="176" y="344" width="140" height="8"/></g>
<g fill="#f2ece0"><rect x="70" y="432" width="118" height="8"/><rect x="70" y="458" width="86" height="8"/></g>
</g>
<rect x="14" y="14" width="372" height="572" fill="none" stroke="#1c1a17" stroke-width="4"/>
<text x="36" y="54" font-family="JetBrains Mono" font-size="11" letter-spacing="3" fill="#1c1a17">MEETUP &#183; OFFENE RUNDE</text>
<text x="36" y="544" font-family="Archivo" font-weight="900" font-size="36" letter-spacing="-2" fill="#1c1a17">SPRECHSTUNDE</text>
<text x="36" y="570" font-family="JetBrains Mono" font-size="10.5" letter-spacing="2.2" fill="#7a6a1e">MITTWOCHS &#183; 19:30 &#183; UNTERGIESING</text>
</svg>
