<?xml version="1.0" encoding="UTF-8"?>
<svg xmlns="http://www.w3.org/2000/svg" viewBox="0 0 400 600">
<style>@import url('../fonts/fonts.css');</style>
<rect width="400" height="600" fill="#10001a"/>
<clipPath id="c34"><rect width="400" height="600"/></clipPath>

<g clip-path="url(#c34)">
<g fill="none" stroke-width="3">
<rect x="24" y="94" width="352" height="352" stroke="#ff2ea6"/>
<rect x="52" y="122" width="296" height="296" stroke="#c72ed6" transform="rotate(6 200 270)"/>
<rect x="82" y="152" width="236" height="236" stroke="#7a2ee6" transform="rotate(12 200 270)"/>
<rect x="112" y="182" width="176" height="176" stroke="#3d5cff" transform="rotate(18 200 270)"/>
<rect x="142" y="212" width="116" height="116" stroke="#2ee0e6" transform="rotate(24 200 270)"/>
<rect x="172" y="242" width="56" height="56" stroke="#2effc4" transform="rotate(30 200 270)"/>
</g>
<circle cx="200" cy="270" r="12" fill="#2effc4"/>
<rect y="470" width="400" height="130" fill="#10001a"/>
</g>
<rect x="12" y="12" width="376" height="576" fill="none" stroke="#ff2ea6" stroke-width="2.5"/>
<text x="34" y="52" font-family="JetBrains Mono" font-size="11" letter-spacing="3" fill="#2ee0e6">RAVE &#183; UNDERGROUND</text>
<text x="200" y="524" text-anchor="middle" font-family="Archivo" font-weight="900" font-size="48" letter-spacing="-1" fill="#f0ece3">TUNNELBLICK</text>
<text x="200" y="552" text-anchor="middle" font-family="JetBrains Mono" font-size="10.5" letter-spacing="2.4" fill="#ff2ea6">24H &#183; KEIN ENDE ANGEK&#220;NDIGT</text>
<text x="200" y="574" text-anchor="middle" font-family="JetBrains Mono" font-size="10.5" letter-spacing="2.4" fill="#7a6a95">31.10 &#183; TONHALLE</text>
</svg>
