<svg xmlns="http://www.w3.org/2000/svg" viewBox="0 0 400 600">
  <style>@import url('https://fonts.googleapis.com/css2?family=Archivo:wght@400;500;600;900&amp;family=JetBrains+Mono:wght@400;500;700&amp;display=swap');</style>

  <rect width="400" height="600" fill="#0f1418"/>
  <rect x="12" y="12" width="376" height="576" fill="none" stroke="#e8e4d9" stroke-width="1" opacity="0.5"/>

  <g>
    <line x1="200" y1="230" x2="329.6" y2="258.4" stroke="#d97b3f" stroke-width="3" stroke-linecap="round"/>
    <line x1="200" y1="230" x2="291.2" y2="293.5" stroke="#e8e4d9" stroke-width="4" stroke-linecap="round"/>
    <line x1="200" y1="230" x2="278.6" y2="352.7" stroke="#e8e4d9" stroke-width="5" stroke-linecap="round"/>
    <line x1="200" y1="230" x2="228.7" y2="390.5" stroke="#d97b3f" stroke-width="6" stroke-linecap="round"/>
    <line x1="200" y1="230" x2="163.3" y2="397.6" stroke="#e8e4d9" stroke-width="3" stroke-linecap="round"/>
    <line x1="200" y1="230" x2="99.5" y2="374.2" stroke="#e8e4d9" stroke-width="4" stroke-linecap="round"/>
    <line x1="200" y1="230" x2="88.3" y2="301.6" stroke="#d97b3f" stroke-width="5" stroke-linecap="round"/>
    <line x1="200" y1="230" x2="46.1" y2="257.5" stroke="#e8e4d9" stroke-width="6" stroke-linecap="round"/>
    <line x1="200" y1="230" x2="35.5" y2="194.0" stroke="#e8e4d9" stroke-width="3" stroke-linecap="round"/>
    <line x1="200" y1="230" x2="94.0" y2="156.2" stroke="#d97b3f" stroke-width="4" stroke-linecap="round"/>
    <line x1="200" y1="230" x2="141.0" y2="137.9" stroke="#e8e4d9" stroke-width="5" stroke-linecap="round"/>
    <line x1="200" y1="230" x2="174.5" y2="87.6" stroke="#e8e4d9" stroke-width="6" stroke-linecap="round"/>
    <line x1="200" y1="230" x2="225.1" y2="115.5" stroke="#d97b3f" stroke-width="3" stroke-linecap="round"/>
    <line x1="200" y1="230" x2="284.9" y2="108.1" stroke="#e8e4d9" stroke-width="4" stroke-linecap="round"/>
    <line x1="200" y1="230" x2="300.5" y2="165.7" stroke="#e8e4d9" stroke-width="5" stroke-linecap="round"/>
    <line x1="200" y1="230" x2="347.3" y2="203.6" stroke="#d97b3f" stroke-width="6" stroke-linecap="round"/>
    <circle cx="200" cy="230" r="31.2078431372549" fill="#d97b3f"/>
  </g>

  <text x="24" y="44" font-family="JetBrains Mono, monospace" font-size="10" letter-spacing="2" fill="#e8e4d9">KONZERT</text>
  <text x="376" y="44" text-anchor="end" font-family="JetBrains Mono, monospace" font-size="10" letter-spacing="2" fill="#e8e4d9">20:00</text>

  <text x="24" y="452" font-family="Archivo, sans-serif" font-weight="900" font-size="48" fill="#e8e4d9" letter-spacing="-1">DOMPLATTE</text>

  <line x1="24" y1="512" x2="376" y2="512" stroke="#d97b3f" stroke-width="1.5"/>
  <text x="24" y="536" font-family="JetBrains Mono, monospace" font-size="9.5" letter-spacing="1.6" fill="#d97b3f">03.10 · KULTURKIRCHE</text>
  <text x="24" y="556" font-family="JetBrains Mono, monospace" font-size="9.5" letter-spacing="1.6" fill="#e8e4d9" opacity="0.75">KÖLN</text>
</svg>
