<svg xmlns="http://www.w3.org/2000/svg" viewBox="0 0 400 600">
  <style>@import url('../fonts/fonts.css');</style>

  <rect width="400" height="600" fill="#141019"/>
  <rect x="12" y="12" width="376" height="576" fill="none" stroke="#f6d64a" stroke-width="1" opacity="0.5"/>

  <g>
    <line x1="200" y1="230" x2="287.5" y2="284.5" stroke="#ff4d8d" stroke-width="3" stroke-linecap="round"/>
    <line x1="200" y1="230" x2="241.3" y2="317.1" stroke="#f6d64a" stroke-width="4" stroke-linecap="round"/>
    <line x1="200" y1="230" x2="188.1" y2="322.4" stroke="#f6d64a" stroke-width="5" stroke-linecap="round"/>
    <line x1="200" y1="230" x2="141.1" y2="299.9" stroke="#ff4d8d" stroke-width="6" stroke-linecap="round"/>
    <line x1="200" y1="230" x2="70.2" y2="270.1" stroke="#f6d64a" stroke-width="3" stroke-linecap="round"/>
    <line x1="200" y1="230" x2="47.7" y2="187.6" stroke="#f6d64a" stroke-width="4" stroke-linecap="round"/>
    <line x1="200" y1="230" x2="87.5" y2="103.8" stroke="#ff4d8d" stroke-width="5" stroke-linecap="round"/>
    <line x1="200" y1="230" x2="179.7" y2="102.1" stroke="#f6d64a" stroke-width="6" stroke-linecap="round"/>
    <line x1="200" y1="230" x2="244.2" y2="129.5" stroke="#f6d64a" stroke-width="3" stroke-linecap="round"/>
    <line x1="200" y1="230" x2="283.2" y2="174.8" stroke="#ff4d8d" stroke-width="4" stroke-linecap="round"/>
    <line x1="200" y1="230" x2="340.1" y2="228.0" stroke="#f6d64a" stroke-width="5" stroke-linecap="round"/>
    <circle cx="200" cy="230" r="28.509803921568626" fill="#ff4d8d"/>
  </g>

  <text x="24" y="44" font-family="JetBrains Mono, monospace" font-size="10" letter-spacing="2" fill="#f6d64a">KONZERT</text>
  <text x="376" y="44" text-anchor="end" font-family="JetBrains Mono, monospace" font-size="10" letter-spacing="2" fill="#f6d64a">20:30</text>

  <text x="24" y="430" font-family="Archivo, sans-serif" font-weight="900" font-size="58" fill="#f6d64a" letter-spacing="-1">SANAT</text>
    <text x="24" y="494" font-family="Archivo, sans-serif" font-weight="900" font-size="58" fill="#f6d64a" letter-spacing="-1">SAHNESI</text>

  <line x1="24" y1="512" x2="376" y2="512" stroke="#ff4d8d" stroke-width="1.5"/>
  <text x="24" y="536" font-family="JetBrains Mono, monospace" font-size="9.5" letter-spacing="1.6" fill="#ff4d8d">10.10 · KIZILAY</text>
  <text x="24" y="556" font-family="JetBrains Mono, monospace" font-size="9.5" letter-spacing="1.6" fill="#f6d64a" opacity="0.75">ANKARA</text>
</svg>
