<svg xmlns="http://www.w3.org/2000/svg" viewBox="0 0 400 600">
  <style>@import url('https://fonts.googleapis.com/css2?family=Archivo:wght@400;500;600;900&amp;family=JetBrains+Mono:wght@400;500;700&amp;display=swap');</style>

  <rect width="400" height="600" fill="#141019"/>
  <rect x="12" y="12" width="376" height="576" fill="none" stroke="#f6d64a" stroke-width="1" opacity="0.5"/>

  <g>
    <line x1="200" y1="230" x2="304.4" y2="336.7" stroke="#ff4d8d" stroke-width="3" stroke-linecap="round"/>
    <line x1="200" y1="230" x2="224.2" y2="347.2" stroke="#f6d64a" stroke-width="4" stroke-linecap="round"/>
    <line x1="200" y1="230" x2="162.3" y2="327.8" stroke="#f6d64a" stroke-width="5" stroke-linecap="round"/>
    <line x1="200" y1="230" x2="84.9" y2="314.2" stroke="#ff4d8d" stroke-width="6" stroke-linecap="round"/>
    <line x1="200" y1="230" x2="39.0" y2="239.8" stroke="#f6d64a" stroke-width="3" stroke-linecap="round"/>
    <line x1="200" y1="230" x2="90.4" y2="168.6" stroke="#f6d64a" stroke-width="4" stroke-linecap="round"/>
    <line x1="200" y1="230" x2="128.2" y2="95.1" stroke="#ff4d8d" stroke-width="5" stroke-linecap="round"/>
    <line x1="200" y1="230" x2="210.0" y2="109.0" stroke="#f6d64a" stroke-width="6" stroke-linecap="round"/>
    <line x1="200" y1="230" x2="264.1" y2="146.2" stroke="#f6d64a" stroke-width="3" stroke-linecap="round"/>
    <line x1="200" y1="230" x2="334.5" y2="181.5" stroke="#ff4d8d" stroke-width="4" stroke-linecap="round"/>
    <line x1="200" y1="230" x2="357.6" y2="266.0" stroke="#f6d64a" stroke-width="5" stroke-linecap="round"/>
    <circle cx="200" cy="230" r="27.75686274509804" fill="#ff4d8d"/>
  </g>

  <text x="24" y="44" font-family="JetBrains Mono, monospace" font-size="10" letter-spacing="2" fill="#f6d64a">KONZERT</text>
  <text x="376" y="44" text-anchor="end" font-family="JetBrains Mono, monospace" font-size="10" letter-spacing="2" fill="#f6d64a">20:00</text>

  <text x="24" y="452" font-family="Archivo, sans-serif" font-weight="900" font-size="58" fill="#f6d64a" letter-spacing="-1">MURUFER</text>

  <line x1="24" y1="512" x2="376" y2="512" stroke="#ff4d8d" stroke-width="1.5"/>
  <text x="24" y="536" font-family="JetBrains Mono, monospace" font-size="9.5" letter-spacing="1.6" fill="#ff4d8d">22.11 · KUNSTHAUS</text>
  <text x="24" y="556" font-family="JetBrains Mono, monospace" font-size="9.5" letter-spacing="1.6" fill="#f6d64a" opacity="0.75">GRAZ</text>
</svg>
