<svg xmlns="http://www.w3.org/2000/svg" viewBox="0 0 400 600">
  <style>@import url('https://fonts.googleapis.com/css2?family=Archivo:wght@400;500;600;900&amp;family=JetBrains+Mono:wght@400;500;700&amp;display=swap');</style>

  <rect width="400" height="600" fill="#101312"/>
  <rect x="12" y="12" width="376" height="576" fill="none" stroke="#c8ff3d" stroke-width="1" opacity="0.5"/>

  <g>
    <circle cx="60" cy="150" r="7" fill="#c8ff3d" opacity="0.95"/>
    <circle cx="116" cy="150" r="7" fill="#c8ff3d" opacity="0.95"/>
    <circle cx="172" cy="150" r="4" fill="#e8e4d9" opacity="0.5"/>
    <circle cx="228" cy="150" r="7" fill="#c8ff3d" opacity="0.95"/>
    <circle cx="284" cy="150" r="7" fill="#c8ff3d" opacity="0.95"/>
    <circle cx="340" cy="150" r="4" fill="#e8e4d9" opacity="0.5"/>
    <circle cx="60" cy="184" r="7" fill="#c8ff3d" opacity="0.95"/>
    <circle cx="116" cy="184" r="4" fill="#e8e4d9" opacity="0.5"/>
    <circle cx="172" cy="184" r="7" fill="#c8ff3d" opacity="0.95"/>
    <circle cx="228" cy="184" r="7" fill="#c8ff3d" opacity="0.95"/>
    <circle cx="284" cy="184" r="4" fill="#e8e4d9" opacity="0.5"/>
    <circle cx="340" cy="184" r="7" fill="#c8ff3d" opacity="0.95"/>
    <circle cx="60" cy="218" r="4" fill="#e8e4d9" opacity="0.5"/>
    <circle cx="116" cy="218" r="7" fill="#c8ff3d" opacity="0.95"/>
    <circle cx="172" cy="218" r="7" fill="#c8ff3d" opacity="0.95"/>
    <circle cx="228" cy="218" r="4" fill="#e8e4d9" opacity="0.5"/>
    <circle cx="284" cy="218" r="7" fill="#c8ff3d" opacity="0.95"/>
    <circle cx="340" cy="218" r="7" fill="#c8ff3d" opacity="0.95"/>
    <circle cx="60" cy="252" r="7" fill="#c8ff3d" opacity="0.95"/>
    <circle cx="116" cy="252" r="7" fill="#c8ff3d" opacity="0.95"/>
    <circle cx="172" cy="252" r="4" fill="#e8e4d9" opacity="0.5"/>
    <circle cx="228" cy="252" r="7" fill="#c8ff3d" opacity="0.95"/>
    <circle cx="284" cy="252" r="7" fill="#c8ff3d" opacity="0.95"/>
    <circle cx="340" cy="252" r="4" fill="#e8e4d9" opacity="0.5"/>
    <circle cx="60" cy="286" r="7" fill="#c8ff3d" opacity="0.95"/>
    <circle cx="116" cy="286" r="4" fill="#e8e4d9" opacity="0.5"/>
    <circle cx="172" cy="286" r="7" fill="#c8ff3d" opacity="0.95"/>
    <circle cx="228" cy="286" r="7" fill="#c8ff3d" opacity="0.95"/>
    <circle cx="284" cy="286" r="4" fill="#e8e4d9" opacity="0.5"/>
    <circle cx="340" cy="286" r="7" fill="#c8ff3d" opacity="0.95"/>
    <circle cx="60" cy="320" r="4" fill="#e8e4d9" opacity="0.5"/>
    <circle cx="116" cy="320" r="7" fill="#c8ff3d" opacity="0.95"/>
    <circle cx="172" cy="320" r="7" fill="#c8ff3d" opacity="0.95"/>
    <circle cx="228" cy="320" r="4" fill="#e8e4d9" opacity="0.5"/>
    <circle cx="284" cy="320" r="7" fill="#c8ff3d" opacity="0.95"/>
    <circle cx="340" cy="320" r="7" fill="#c8ff3d" opacity="0.95"/>
  </g>

  <text x="24" y="44" font-family="JetBrains Mono, monospace" font-size="10" letter-spacing="2" fill="#c8ff3d">MEETUP</text>
  <text x="376" y="44" text-anchor="end" font-family="JetBrains Mono, monospace" font-size="10" letter-spacing="2" fill="#c8ff3d">17:00</text>

  <text x="24" y="430" font-family="Archivo, sans-serif" font-weight="900" font-size="58" fill="#c8ff3d" letter-spacing="-1">SUNDAY</text>
    <text x="24" y="494" font-family="Archivo, sans-serif" font-weight="900" font-size="58" fill="#c8ff3d" letter-spacing="-1">SOUND</text>

  <line x1="24" y1="512" x2="376" y2="512" stroke="#e8e4d9" stroke-width="1.5"/>
  <text x="24" y="536" font-family="JetBrains Mono, monospace" font-size="9.5" letter-spacing="1.6" fill="#e8e4d9">25.10 · JABI LAKE</text>
  <text x="24" y="556" font-family="JetBrains Mono, monospace" font-size="9.5" letter-spacing="1.6" fill="#c8ff3d" opacity="0.75">ABUJA</text>
</svg>
